<svg xmlns="http://www.w3.org/2000/svg" viewBox="0 0 800 600" role="img" aria-label="Demo fundus photograph (fictional)">
  <defs>
    <radialGradient id="fbg" cx="50%" cy="50%" r="75%">
      <stop offset="0%" stop-color="#e07a3c"/>
      <stop offset="55%" stop-color="#b8551f"/>
      <stop offset="100%" stop-color="#5a2410"/>
    </radialGradient>
    <radialGradient id="disc" cx="50%" cy="50%" r="50%">
      <stop offset="0%" stop-color="#ffe6c4"/>
      <stop offset="70%" stop-color="#f2b877"/>
      <stop offset="100%" stop-color="#d98f45"/>
    </radialGradient>
  </defs>
  <rect width="800" height="600" fill="#0d0806"/>
  <circle cx="400" cy="300" r="270" fill="url(#fbg)"/>
  <g stroke="#7a2d16" stroke-linecap="round" fill="none" opacity="0.75">
    <path d="M545 250 C470 270 430 300 300 250 C220 220 160 240 150 300" stroke-width="9"/>
    <path d="M545 250 C470 270 430 300 300 250 C220 220 160 240 150 300" stroke-width="3" stroke="#9c3a1d"/>
    <path d="M545 350 C470 330 430 320 300 360 C230 385 170 380 150 330" stroke-width="8"/>
    <path d="M540 260 C500 200 470 150 440 110" stroke-width="6"/>
    <path d="M540 340 C500 420 470 470 450 500" stroke-width="6"/>
    <path d="M300 250 C280 190 260 160 235 130" stroke-width="4"/>
    <path d="M300 360 C280 420 255 460 235 490" stroke-width="4"/>
  </g>
  <circle cx="545" cy="300" r="52" fill="url(#disc)" stroke="#c98b52" stroke-width="2"/>
  <circle cx="545" cy="300" r="26" fill="#f7d9ab" opacity="0.85"/>
  <circle cx="330" cy="305" r="46" fill="#7a2f16" opacity="0.5"/>
  <circle cx="330" cy="305" r="8" fill="#4a1c0c"/>
  <text x="400" y="565" text-anchor="middle" fill="#f0d4b8" font-family="system-ui,sans-serif" font-size="17">DEMO fundus - fictional, not a real patient</text>
</svg>
